<svg width="14" height="14" viewBox="0 0 14 14" fill="none" xmlns="http://www.w3.org/2000/svg">
<path fill-rule="evenodd" clip-rule="evenodd" d="M5.54159 0.583344C4.73618 0.583344 4.08325 1.23626 4.08325 2.04168V2.62501H0.874919C0.713837 2.62501 0.583252 2.7556 0.583252 2.91668C0.583252 3.07776 0.713837 3.20834 0.874919 3.20834H2.33325V11.9583C2.33325 12.7638 2.98618 13.4167 3.79159 13.4167H10.2083C11.0137 13.4167 11.6666 12.7638 11.6666 11.9583V3.20834H13.1249C13.286 3.20834 13.4166 3.07776 13.4166 2.91668C13.4166 2.7556 13.286 2.62501 13.1249 2.62501H9.91658V2.04168C9.91658 1.23626 9.26366 0.583344 8.45825 0.583344H5.54159ZM9.33325 2.62501V2.04168C9.33325 1.55843 8.94151 1.16668 8.45825 1.16668H5.54159C5.05832 1.16668 4.66659 1.55843 4.66659 2.04168V2.62501H9.33325ZM5.83325 5.71198C5.83325 5.55089 5.70267 5.42031 5.54159 5.42031C5.3805 5.42031 5.24992 5.55089 5.24992 5.71198V10.087C5.24992 10.248 5.3805 10.3786 5.54159 10.3786C5.70267 10.3786 5.83325 10.248 5.83325 10.087V5.71198ZM8.74992 5.71198C8.74992 5.55089 8.61934 5.42031 8.45825 5.42031C8.29716 5.42031 8.16659 5.55089 8.16659 5.71198V10.087C8.16659 10.248 8.29716 10.3786 8.45825 10.3786C8.61934 10.3786 8.74992 10.248 8.74992 10.087V5.71198Z" fill="white"/>
</svg>
