<svg width="29" height="28" viewBox="0 0 29 28" fill="none" xmlns="http://www.w3.org/2000/svg">
<path d="M25.5933 18.4203L28.7017 19.9754C29.1004 20.1748 29.1004 20.7439 28.7017 20.9433L14.9847 27.8036C14.8344 27.8786 14.6687 27.9176 14.5008 27.9176C14.3328 27.9176 14.1671 27.8786 14.0168 27.8036L0.299816 20.9433C0.210209 20.8981 0.134902 20.829 0.0822843 20.7435C0.029667 20.6581 0.00180632 20.5597 0.00180632 20.4593C0.00180632 20.359 0.029667 20.2606 0.0822843 20.1752C0.134902 20.0897 0.210209 20.0206 0.299816 19.9754L3.41007 18.4203L13.0471 23.2397C13.9624 23.6965 15.0409 23.6965 15.9544 23.2397L25.5914 18.4185L25.5933 18.4203ZM14.0168 0.114035C14.1671 0.0390387 14.3328 0 14.5008 0C14.6687 0 14.8344 0.0390387 14.9847 0.114035L28.7017 6.97254C28.7912 7.01799 28.8664 7.08735 28.919 7.17293C28.9715 7.25851 28.9993 7.35697 28.9993 7.45738C28.9993 7.55779 28.9715 7.65625 28.919 7.74183C28.8664 7.8274 28.7912 7.89677 28.7017 7.94222L14.9847 14.7989C14.8344 14.8739 14.6687 14.9129 14.5008 14.9129C14.3328 14.9129 14.1671 14.8739 14.0168 14.7989L0.299816 7.94222C0.209734 7.89724 0.133966 7.82805 0.0810086 7.74241C0.0280515 7.65677 0 7.55807 0 7.45738C0 7.35669 0.0280515 7.25799 0.0810086 7.17235C0.133966 7.08671 0.209734 7.01752 0.299816 6.97254L14.0168 0.114035Z" fill="#BDE6D3"/>
<path d="M25.5916 12.303L28.7 13.8581C29.0988 14.0575 29.0988 14.6266 28.7 14.826L14.983 21.6845C14.8327 21.7595 14.667 21.7985 14.4991 21.7985C14.3311 21.7985 14.1654 21.7595 14.0151 21.6845L0.298132 14.826C0.208525 14.7808 0.133217 14.7117 0.0806 14.6262C0.0279827 14.5408 0.00012207 14.4424 0.00012207 14.342C0.00012207 14.2417 0.0279827 14.1433 0.0806 14.0579C0.133217 13.9724 0.208525 13.9033 0.298132 13.8581L3.40838 12.303L13.0454 17.1224C13.9608 17.5792 15.0392 17.5792 15.9527 17.1224L25.5898 12.303H25.5916Z" fill="white"/>
</svg>
